<?xml version="1.0" encoding="utf-8"?>
<!-- Generator: Adobe Illustrator 23.0.0, SVG Export Plug-In . SVG Version: 6.00 Build 0)  -->
<svg version="1.1" id="Layer_1" xmlns="http://www.w3.org/2000/svg" xmlns:xlink="http://www.w3.org/1999/xlink" x="0px" y="0px"
	 viewBox="0 0 704 494" style="enable-background:new 0 0 704 494;" xml:space="preserve">
<style type="text/css">
	.st0{opacity:5.000000e-02;fill-rule:evenodd;clip-rule:evenodd;fill:#EA5455;enable-background:new    ;}
	.st1{opacity:0.25;fill-rule:evenodd;clip-rule:evenodd;fill:#7367F0;enable-background:new    ;}
	.st2{fill-rule:evenodd;clip-rule:evenodd;fill:#F2F2F2;}
	.st3{filter:url(#filter-2);}
	.st4{fill-rule:evenodd;clip-rule:evenodd;}
	.st5{fill-rule:evenodd;clip-rule:evenodd;fill:#7367F0;}
	.st6{opacity:0.3949;fill-rule:evenodd;clip-rule:evenodd;fill:#FFFFFF;enable-background:new    ;}
	.st7{fill-rule:evenodd;clip-rule:evenodd;fill:#FFFFFF;}
	.st8{fill-rule:evenodd;clip-rule:evenodd;fill:#E4E4E4;}
	.st9{fill-rule:evenodd;clip-rule:evenodd;fill:#FFFFFF;fill-opacity:0.4239;}
	.st10{fill-rule:evenodd;clip-rule:evenodd;fill:#FFFFFF;fill-opacity:0.2049;}
	.st11{filter:url(#filter-4);}
	.st12{opacity:0.34;fill:#467FFF;enable-background:new    ;}
	.st13{filter:url(#filter-6);}
	.st14{fill-rule:evenodd;clip-rule:evenodd;fill:#FFFFFF;fill-opacity:0.3459;}
	.st15{fill-rule:evenodd;clip-rule:evenodd;fill:#D4D4D4;}
	.st16{fill-rule:evenodd;clip-rule:evenodd;fill:#F5818D;}
	.st17{fill-rule:evenodd;clip-rule:evenodd;fill:#FFBD63;}
	.st18{fill-rule:evenodd;clip-rule:evenodd;fill:#4CE47A;}
	.st19{filter:url(#filter-8);}
	.st20{opacity:0.2;fill-rule:evenodd;clip-rule:evenodd;fill:#FF9F43;enable-background:new    ;}
	.st21{opacity:0.5;fill-rule:evenodd;clip-rule:evenodd;fill:#FF9F43;enable-background:new    ;}
	.st22{fill:#FF9F43;}
	.st23{fill-rule:evenodd;clip-rule:evenodd;fill:#FF9F43;}
	.st24{filter:url(#filter-10);}
	.st25{opacity:0.4541;fill-rule:evenodd;clip-rule:evenodd;fill:#28C76F;enable-background:new    ;}
	.st26{fill-rule:evenodd;clip-rule:evenodd;fill:#28C76F;}
	.st27{fill-rule:evenodd;clip-rule:evenodd;fill:url(#Path-146_1_);}
	.st28{display:none;}
	.st29{display:inline;}
	.st30{fill-rule:evenodd;clip-rule:evenodd;fill:#F8CFCF;}
	.st31{fill-rule:evenodd;clip-rule:evenodd;fill:#4B4B4B;}
	.st32{fill:none;stroke:#FFFFFF;stroke-width:2;stroke-linecap:round;}
	.st33{fill-rule:evenodd;clip-rule:evenodd;fill:#383838;}
	.st34{opacity:0.2836;fill-rule:evenodd;clip-rule:evenodd;fill:#FFFFFF;fill-opacity:0.1925;enable-background:new    ;}
	.st35{fill-rule:evenodd;clip-rule:evenodd;fill:#2E2E2E;}
	.st36{fill-rule:evenodd;clip-rule:evenodd;fill:#F28585;}
	.st37{fill-rule:evenodd;clip-rule:evenodd;fill:#877BFF;}
	.st38{fill-rule:evenodd;clip-rule:evenodd;fill-opacity:0.1599;}
	.st39{fill:none;stroke:#5386BF;stroke-linecap:round;}
	.st40{fill-rule:evenodd;clip-rule:evenodd;fill:#F8C5C5;}
	.st41{fill-rule:evenodd;clip-rule:evenodd;fill:url(#SVGID_1_);}
	.st42{fill-rule:evenodd;clip-rule:evenodd;fill:#424242;}
	.st43{fill:none;stroke:#CC6969;stroke-linecap:round;}
	.st44{fill:none;stroke:#DE6767;stroke-linecap:round;}
	.st45{fill-rule:evenodd;clip-rule:evenodd;fill:#5E54C7;}
	.st46{fill-rule:evenodd;clip-rule:evenodd;fill:url(#SVGID_2_);}
	.st47{fill:#6182EC;}
	.st48{fill-rule:evenodd;clip-rule:evenodd;fill:#96EFFA;}
	.st49{fill:#74CFDB;}
	.st50{fill:#EAEFFF;}
	.st51{fill:#7AD2DD;}
	.st52{fill-rule:evenodd;clip-rule:evenodd;fill:#E8FFFF;}
	.st53{fill:none;stroke:#000000;stroke-width:0.8;stroke-linecap:round;stroke-opacity:0.1158;}
	.st54{fill-rule:evenodd;clip-rule:evenodd;fill:#FFE2E2;}
	.st55{fill-rule:evenodd;clip-rule:evenodd;fill:#26553B;}
	.st56{fill-rule:evenodd;clip-rule:evenodd;fill:#FFFFFF;fill-opacity:0.1925;}
	.st57{fill-rule:evenodd;clip-rule:evenodd;fill:#31694A;}
	.st58{fill-rule:evenodd;clip-rule:evenodd;fill:url(#SVGID_3_);}
	.st59{fill-rule:evenodd;clip-rule:evenodd;fill:#88CEA7;}
	.st60{fill-rule:evenodd;clip-rule:evenodd;fill:#6BCA95;}
	.st61{display:inline;fill-rule:evenodd;clip-rule:evenodd;fill:#28211D;}
	.st62{fill:#FFFFFF;}
</style>
<filter  filterUnits="objectBoundingBox" height="222.3%" id="filter-8" width="145.4%" x="-18.0%" y="-46.4%">
	<feOffset  dx="6" dy="7" in="SourceAlpha" result="shadowOffsetOuter1"></feOffset>
	<feGaussianBlur  in="shadowOffsetOuter1" result="shadowBlurOuter1" stdDeviation="8.5"></feGaussianBlur>
	
		<feColorMatrix  in="shadowBlurOuter1" type="matrix" values="0 0 0 0 0.561707428   0 0 0 0 0.561707428   0 0 0 0 0.561707428  0 0 0 0.208724869 0">
		</feColorMatrix>
</filter>
<filter  filterUnits="objectBoundingBox" height="347.0%" id="filter-6" width="352.2%" x="-104.4%" y="-99.6%">
	<feOffset  dx="8" dy="9" in="SourceAlpha" result="shadowOffsetOuter1"></feOffset>
	<feGaussianBlur  in="shadowOffsetOuter1" result="shadowBlurOuter1" stdDeviation="14"></feGaussianBlur>
	
		<feColorMatrix  in="shadowBlurOuter1" result="shadowMatrixOuter1" type="matrix" values="0 0 0 0 0.0755212756   0 0 0 0 0.582569014   0 0 0 0 0.878793025  0 0 0 0.229458042 0">
		</feColorMatrix>
	<feOffset  dx="0" dy="2" in="SourceAlpha" result="shadowOffsetOuter2"></feOffset>
	<feGaussianBlur  in="shadowOffsetOuter2" result="shadowBlurOuter2" stdDeviation="7.5"></feGaussianBlur>
	
		<feColorMatrix  in="shadowBlurOuter2" result="shadowMatrixOuter2" type="matrix" values="0 0 0 0 0.50398247   0 0 0 0 0.700178215   0 0 0 0 1  0 0 0 0.233828671 0">
		</feColorMatrix>
	<feMerge>
		<feMergeNode  in="shadowMatrixOuter1"></feMergeNode>
		<feMergeNode  in="shadowMatrixOuter2"></feMergeNode>
	</feMerge>
</filter>
<filter  filterUnits="objectBoundingBox" height="159.4%" id="filter-4" width="175.0%" x="-29.2%" y="-22.3%">
	<feOffset  dx="8" dy="9" in="SourceAlpha" result="shadowOffsetOuter1"></feOffset>
	<feGaussianBlur  in="shadowOffsetOuter1" result="shadowBlurOuter1" stdDeviation="10.5"></feGaussianBlur>
	
		<feColorMatrix  in="shadowBlurOuter1" type="matrix" values="0 0 0 0 0.276721014   0 0 0 0 0.276721014   0 0 0 0 0.276721014  0 0 0 0.208724869 0">
		</feColorMatrix>
</filter>
<filter  filterUnits="objectBoundingBox" height="168.7%" id="filter-2" width="147.2%" x="-20.7%" y="-31.5%">
	<feOffset  dx="6" dy="4" in="SourceAlpha" result="shadowOffsetOuter1"></feOffset>
	<feGaussianBlur  in="shadowOffsetOuter1" result="shadowBlurOuter1" stdDeviation="15"></feGaussianBlur>
	
		<feColorMatrix  in="shadowBlurOuter1" type="matrix" values="0 0 0 0 0.567616636   0 0 0 0 0.42745098   0 0 0 0 1  0 0 0 0.725906906 0">
		</feColorMatrix>
</filter>
<filter  filterUnits="objectBoundingBox" height="192.8%" id="filter-10" width="134.4%" x="-13.3%" y="-35.8%">
	<feOffset  dx="5" dy="5" in="SourceAlpha" result="shadowOffsetOuter1"></feOffset>
	<feGaussianBlur  in="shadowOffsetOuter1" result="shadowBlurOuter1" stdDeviation="6.5"></feGaussianBlur>
	
		<feColorMatrix  in="shadowBlurOuter1" type="matrix" values="0 0 0 0 0.649654665   0 0 0 0 0.649654665   0 0 0 0 0.649654665  0 0 0 0.208724869 0">
		</feColorMatrix>
</filter>
<title>Illustration</title>
<g>
	<g id="Comingsoon" transform="translate(-368.000000, -400.000000)">
		<g id="Illustration" transform="translate(368.000000, 400.000000)">
			<g id="Shape">
				<path id="Triangle" class="st0" d="M626.9,49.2L700,161.8c1.2,1.9,0.7,4.3-1.2,5.5c-0.6,0.4-1.4,0.6-2.2,0.6H550.4
					c-2.2,0-4-1.8-4-4c0-0.8,0.2-1.5,0.6-2.2l73.1-112.7c1.2-1.9,3.7-2.4,5.5-1.2C626.1,48.3,626.5,48.7,626.9,49.2z"/>
				<path class="st0" d="M100.9,244.2L191,383.8c1.2,1.9,0.7,4.3-1.2,5.5c-0.6,0.4-1.4,0.6-2.2,0.6H7.3c-2.2,0-4-1.8-4-4
					c0-0.8,0.2-1.5,0.6-2.2l90.2-139.6c1.2-1.9,3.7-2.4,5.5-1.2C100.1,243.3,100.6,243.7,100.9,244.2z"/>
				<path class="st1" d="M449.4,220.2L596,447.8c1.2,1.9,0.7,4.3-1.2,5.5c-0.6,0.4-1.4,0.6-2.2,0.6H299.3c-2.2,0-4-1.8-4-4
					c0-0.8,0.2-1.5,0.6-2.2l146.7-227.6c1.2-1.9,3.7-2.4,5.5-1.2C448.6,219.3,449.1,219.7,449.4,220.2z"/>
				<path class="st1" d="M592.4,39.8l51,86.1c1.1,1.9,0.5,4.4-1.4,5.5c-0.6,0.4-1.3,0.6-2,0.6H538c-2.2,0-4-1.8-4-4
					c0-0.7,0.2-1.4,0.6-2l51-86.1c1.1-1.9,3.6-2.5,5.5-1.4C591.6,38.8,592.1,39.2,592.4,39.8z"/>
				<path class="st0" d="M180.9,5.3l36.2,56.6c1.2,1.9,0.6,4.3-1.2,5.5c-0.6,0.4-1.4,0.6-2.2,0.6h-72.4c-2.2,0-4-1.8-4-4
					c0-0.8,0.2-1.5,0.6-2.2l36.2-56.6c1.2-1.9,3.7-2.4,5.5-1.2C180.1,4.4,180.6,4.8,180.9,5.3z"/>
			</g>
			<g id="Finance-Presentation" transform="translate(95.000000, 82.000000)">
				<g id="DesktopDasboard">
					<path id="Rectangle" class="st2" d="M25.1,0h462.5c13.9,0,25.1,11.3,25.1,25.1v285.5c0,13.9-11.3,25.1-25.1,25.1H25.1
						C11.3,335.8,0,324.5,0,310.6V25.1C0,11.3,11.3,0,25.1,0z"/>
					<g id="ElementCard11" transform="translate(143.032710, 51.876485)">
						<g>
							<g class="st3">
								<path id="path-1_1_" class="st4" d="M7.5,0h188.4c4.1,0,7.5,3.4,7.5,7.5v124.8c0,4.1-3.4,7.5-7.5,7.5H7.5
									c-4.1,0-7.5-3.4-7.5-7.5V7.5C0,3.4,3.4,0,7.5,0z"/>
							</g>
							<g>
								<path class="st5" d="M7.5,0h188.4c4.1,0,7.5,3.4,7.5,7.5v124.8c0,4.1-3.4,7.5-7.5,7.5H7.5c-4.1,0-7.5-3.4-7.5-7.5V7.5
									C0,3.4,3.4,0,7.5,0z"/>
							</g>
						</g>
						<g id="Group-12" transform="translate(29.902626, 40.021096)">
							<path id="Path" class="st6" d="M25.4,13.5v30.3c0,0.8-0.7,1.5-1.5,1.5H17c-0.8,0-1.5-0.7-1.5-1.5V13.5c0-0.8,0.7-1.5,1.5-1.5
								h6.9C24.7,12,25.4,12.7,25.4,13.5z"/>
							<path class="st7" d="M9.9,26.1v17.7c0,0.8-0.7,1.5-1.5,1.5H1.5c-0.8,0-1.5-0.7-1.5-1.5V26.1c0-0.8,0.7-1.5,1.5-1.5h6.9
								C9.2,24.6,9.9,25.2,9.9,26.1z"/>
							<path class="st7" d="M41,1.6v42.2c0,0.8-0.7,1.5-1.5,1.5h-6.9c-0.8,0-1.5-0.7-1.5-1.5V1.6c0-0.8,0.7-1.5,1.5-1.5h6.9
								C40.3,0.1,41,0.7,41,1.6z"/>
							<path class="st6" d="M56.5,7.5v36.2c0,0.8-0.7,1.5-1.5,1.5h-6.9c-0.8,0-1.5-0.7-1.5-1.5V7.5c0-0.8,0.7-1.5,1.5-1.5H55
								C55.8,6,56.5,6.7,56.5,7.5z"/>
							<path class="st7" d="M72.1,19.5v24.3c0,0.8-0.7,1.5-1.5,1.5h-6.9c-0.8,0-1.5-0.7-1.5-1.5V19.5c0-0.8,0.7-1.5,1.5-1.5h6.9
								C71.4,18,72.1,18.7,72.1,19.5z"/>
							<path class="st6" d="M87.6,46.4v18.3c0,0.8-0.7,1.5-1.5,1.5h-6.9c-0.8,0-1.5-0.7-1.5-1.5V46.4c0-0.8,0.7-1.5,1.5-1.5h6.9
								C86.9,44.9,87.6,45.5,87.6,46.4z"/>
							<path class="st7" d="M103.2,46.4v35.1c0,0.8-0.7,1.5-1.5,1.5h-6.9c-0.8,0-1.5-0.7-1.5-1.5V46.4c0-0.8,0.7-1.5,1.5-1.5h6.9
								C102.5,44.9,103.2,45.5,103.2,46.4z"/>
							<path class="st6" d="M118.7,46.4v26.1c0,0.8-0.7,1.5-1.5,1.5h-6.9c-0.8,0-1.5-0.7-1.5-1.5V46.4c0-0.8,0.7-1.5,1.5-1.5h6.9
								C118,44.9,118.7,45.5,118.7,46.4z"/>
							<path class="st7" d="M134.3,46.4v32.1c0,0.8-0.7,1.5-1.5,1.5h-6.9c-0.8,0-1.5-0.7-1.5-1.5V46.4c0-0.8,0.7-1.5,1.5-1.5h6.9
								C133.6,44.9,134.3,45.5,134.3,46.4z"/>
							<path class="st6" d="M149.8,46.4v18.3c0,0.8-0.7,1.5-1.5,1.5h-6.9c-0.8,0-1.5-0.7-1.5-1.5V46.4c0-0.8,0.7-1.5,1.5-1.5h6.9
								C149.1,44.9,149.8,45.5,149.8,46.4z"/>
						</g>
						<path class="st6" d="M26.3,23.9h59.8c1,0,1.8,0.8,1.8,1.8s-0.8,1.8-1.8,1.8H26.3c-1,0-1.8-0.8-1.8-1.8S25.3,23.9,26.3,23.9z"
							/>
						<rect x="24.5" y="13.7" class="st7" width="33.5" height="3.6"/>
					</g>
					<path class="st8" d="M25.1,0h55c13.9,0,25.1,11.3,25.1,25.1v310.6l0,0H25.1C11.3,335.8,0,324.5,0,310.6V25.1
						C0,11.3,11.3,0,25.1,0z"/>
					<path class="st9" d="M17.8,46.3h68.3c2.8,0,5,2.2,5,5v4.4c0,2.8-2.2,5-5,5H17.8c-2.8,0-5-2.2-5-5v-4.4
						C12.8,48.5,15,46.3,17.8,46.3z"/>
					<path class="st10" d="M17.8,72.6h36.3c2.8,0,5,2.2,5,5V82c0,2.8-2.2,5-5,5H17.8c-2.8,0-5-2.2-5-5v-4.4
						C12.8,74.9,15,72.6,17.8,72.6z"/>
					<path class="st10" d="M17.8,96.6h36.3c2.8,0,5,2.2,5,5v4.4c0,2.8-2.2,5-5,5H17.8c-2.8,0-5-2.2-5-5v-4.4
						C12.8,98.8,15,96.6,17.8,96.6z"/>
					<path class="st8" d="M375.6,0h112.1c13.9,0,25.1,11.3,25.1,25.1v285.5c0,13.9-11.3,25.1-25.1,25.1H375.6l0,0V0z"/>
					<g id="Group-23" transform="translate(398.733645, 47.087886)">
						<g>
							<g class="st11">
								<path id="path-3_1_" class="st4" d="M10,0h75.4c5.5,0,10,4.5,10,10l0.4,101.3c0,5.5-4.4,10-10,10c0,0,0,0,0,0H10.4
									c-5.5,0-10-4.5-10-10L0,10C0,4.5,4.5,0,10,0C10,0,10,0,10,0z"/>
							</g>
							<g>
								<path class="st7" d="M10,0h75.4c5.5,0,10,4.5,10,10l0.4,101.3c0,5.5-4.4,10-10,10c0,0,0,0,0,0H10.4c-5.5,0-10-4.5-10-10
									L0,10C0,4.5,4.5,0,10,0C10,0,10,0,10,0z"/>
							</g>
						</g>
						<path class="st12" d="M32.8,75h30.4c1.3,0,2.4,1.1,2.4,2.4s-1.1,2.4-2.4,2.4H32.8c-1.3,0-2.4-1.1-2.4-2.4S31.4,75,32.8,75z"/>
						<path class="st12" d="M24.8,87.8h46.4c1.3,0,2.4,1.1,2.4,2.4s-1.1,2.4-2.4,2.4H24.8c-1.3,0-2.4-1.1-2.4-2.4
							S23.4,87.8,24.8,87.8z"/>
						<g id="Icon8" transform="translate(29.565421, 19.952494)">
							<g id="Oval">
								<g class="st13">
									<ellipse id="path-5_1_" class="st4" cx="18.4" cy="18.8" rx="18.4" ry="18.8"/>
								</g>
								<g>
									<ellipse class="st7" cx="18.4" cy="18.8" rx="18.4" ry="18.8"/>
								</g>
							</g>
							<g id="Group-70" transform="translate(11.186916, 8.779097)">
								<path id="Combined-Shape" class="st5" d="M11.3,10.8c2.2,0,3.9,1.8,3.9,3.9v2.6c0,0.7-0.6,1.3-1.3,1.3H1.3
									C0.6,18.6,0,18,0,17.3v-2.6c0-2.2,1.8-3.9,3.9-3.9H11.3z M7.6,0c2.6,0,4.7,2.1,4.7,4.7s-2.1,4.7-4.7,4.7S2.9,7.3,2.9,4.7
									S5,0,7.6,0z"/>
							</g>
						</g>
					</g>
					<path class="st14" d="M401.3,237H492c2.8,0,5,2.2,5,5v68.2c0,2.8-2.2,5-5,5h-90.7c-2.8,0-5-2.2-5-5V242
						C396.3,239.3,398.6,237,401.3,237z"/>
					<path class="st15" d="M25.1,0h462.5c13.9,0,25.1,11.3,25.1,25.1v2.6l0,0H0v-2.6C0,11.3,11.3,0,25.1,0z"/>
					<path class="st16" d="M20.8,16.8c1.8,0,3.2-1.4,3.2-3.2s-1.4-3.2-3.2-3.2c-1.8,0-3.2,1.4-3.2,3.2S19,16.8,20.8,16.8z"/>
					<path class="st17" d="M33.6,16.8c1.8,0,3.2-1.4,3.2-3.2s-1.4-3.2-3.2-3.2c-1.8,0-3.2,1.4-3.2,3.2S31.8,16.8,33.6,16.8z"/>
					<path class="st18" d="M47.1,16.8c1.8,0,3.2-1.4,3.2-3.2s-1.4-3.2-3.2-3.2s-3.2,1.4-3.2,3.2S45.4,16.8,47.1,16.8z"/>
				</g>
				<g id="ElementCard25" transform="translate(145.000000, 209.000000)">
					<g>
						<g class="st19">
							<path id="path-7_1_" class="st4" d="M6,0h115.9c3.3,0,6,2.7,6,6v35.4c0,3.3-2.7,6-6,6H6c-3.3,0-6-2.7-6-6V6C0,2.7,2.7,0,6,0z
								"/>
						</g>
						<g>
							<path class="st7" d="M6,0h115.9c3.3,0,6,2.7,6,6v35.4c0,3.3-2.7,6-6,6H6c-3.3,0-6-2.7-6-6V6C0,2.7,2.7,0,6,0z"/>
						</g>
					</g>
					<path class="st20" d="M43.1,26.3h24c0.8,0,1.4,0.6,1.4,1.4s-0.6,1.4-1.4,1.4h-24c-0.8,0-1.4-0.6-1.4-1.4S42.3,26.3,43.1,26.3z"
						/>
					<path class="st21" d="M43.1,18.2h14.4c0.8,0,1.4,0.6,1.4,1.4c0,0.8-0.6,1.4-1.4,1.4H43.1c-0.8,0-1.4-0.6-1.4-1.4
						C41.7,18.8,42.3,18.2,43.1,18.2z"/>
					<path class="st22" d="M88.7,18.3c0.4-0.9,1.5-1.3,2.4-0.9c0.3,0.1,0.6,0.4,0.7,0.6l0.1,0.1l3.5,6c0,0.1,0.1,0.1,0.2,0l0,0l0,0
						l1.9-2.1c0.7-0.7,1.8-0.8,2.5-0.2c0,0,0.1,0.1,0.1,0.1l0.1,0.1l2.7,3.4c0,0.1,0.1,0.1,0.2,0l0,0l0,0l4.3-7
						c0.5-0.8,1.6-1.1,2.5-0.6c0.1,0.1,0.3,0.2,0.4,0.3l0.1,0.1l2,2.4c0.3,0.4,0.3,0.9-0.1,1.2c-0.3,0.3-0.8,0.3-1.1,0l-0.1-0.1
						l-2-2.4c0,0,0,0,0,0c0,0-0.1,0-0.1,0l0,0l-4.3,7c-0.1,0.2-0.2,0.3-0.4,0.4c-0.7,0.6-1.8,0.5-2.5-0.2l-0.1-0.1l-2.7-3.4
						c0,0,0,0,0,0c0,0-0.1,0-0.1,0l0,0l-1.9,2.1c-0.1,0.1-0.3,0.3-0.4,0.4c-0.8,0.5-1.9,0.2-2.4-0.6L94,25l-3.5-6c0,0,0,0-0.1,0
						c-0.1,0-0.1,0-0.1,0l0,0l-3.4,7.5c-0.1,0.3-0.3,0.5-0.6,0.7l-0.1,0.1l-4.1,2.6c-0.4,0.2-0.9,0.1-1.2-0.3
						c-0.2-0.4-0.1-0.9,0.2-1.1l0.1,0l4.1-2.6c0,0,0,0,0,0l0,0L88.7,18.3z"/>
					<circle class="st23" cx="23.7" cy="24.2" r="9.8"/>
				</g>
				<g id="ElementCard26" transform="translate(145.000000, 274.000000)">
					<g>
						<g class="st24">
							<path id="path-9_1_" class="st4" d="M6,0h115.9c3.3,0,6,2.7,6,6v35.4c0,3.3-2.7,6-6,6H6c-3.3,0-6-2.7-6-6V6C0,2.7,2.7,0,6,0z
								"/>
						</g>
						<g>
							<path class="st7" d="M6,0h115.9c3.3,0,6,2.7,6,6v35.4c0,3.3-2.7,6-6,6H6c-3.3,0-6-2.7-6-6V6C0,2.7,2.7,0,6,0z"/>
						</g>
					</g>
					<path class="st25" d="M44.1,26.8h24c0.8,0,1.4,0.6,1.4,1.4c0,0.8-0.6,1.4-1.4,1.4h-24c-0.8,0-1.4-0.6-1.4-1.4
						C42.6,27.5,43.3,26.8,44.1,26.8z"/>
					<path class="st26" d="M44.1,18.7h14.4c0.8,0,1.4,0.6,1.4,1.4s-0.6,1.4-1.4,1.4H44.1c-0.8,0-1.4-0.6-1.4-1.4
						S43.3,18.7,44.1,18.7z"/>
					
						<linearGradient id="Path-146_1_" gradientUnits="userSpaceOnUse" x1="-827.6765" y1="411.8571" x2="-827.6765" y2="410.7904" gradientTransform="matrix(32.2468 0 0 -14.4486 26787.9453 5964.8369)">
						<stop  offset="0" style="stop-color:#71FFB0"/>
						<stop  offset="1" style="stop-color:#91F688"/>
					</linearGradient>
					<path id="Path-146" class="st27" d="M81.9,29.5l4.9-8.6c0.7-1.1,2.1-1.6,3.3-0.9c0,0,0,0,0,0l1.2,0.7c0.8,0.5,1.9,0.4,2.7-0.2
						l2.1-1.7c0.8-0.6,1.9-0.7,2.8-0.1l1.4,0.9c1.1,0.7,2.6,0.4,3.3-0.7c0,0,0-0.1,0.1-0.1c1-1.8,2.2-2.9,3.6-3.3
						c2-0.6,4.3-0.6,6.8,0v14H81.9z"/>
					<path class="st26" d="M81.9,29.5l5.3-4.2c0.8-0.6,2-0.7,2.8-0.1l0.3,0.2c0.9,0.6,2,0.5,2.8-0.1l2.1-1.6C96,23,97.1,23,98,23.5
						l1.9,1.2c1,0.6,2.3,0.4,3.1-0.5c1.7-1.9,3.3-3.1,4.9-3.6c2-0.6,4.1-0.7,6.3-0.4v9.2H81.9z"/>
					<circle class="st26" cx="23.7" cy="24.2" r="9.8"/>
				</g>
				<g id="Icon2" transform="translate(258.000000, 261.000000)">
					<ellipse class="st26" cx="14.8" cy="15.5" rx="14.6" ry="15"/>
					<path class="st7" d="M9.8,14.3c-0.4-0.5-1.2-0.6-1.7-0.2s-0.6,1.2-0.2,1.7l4.3,5.2c0.5,0.6,1.4,0.7,2.1,0.2
						c0.1-0.1,0.2-0.2,0.2-0.3l6.1-8.2c0.4-0.5,0.3-1.3-0.3-1.7s-1.3-0.3-1.7,0.3l-5.4,7.2L9.8,14.3z"/>
				</g>
				<g id="Men3.2" transform="translate(26.000000, 103.000000)" class="st28">
					<g id="LLeg" transform="translate(38.520694, 111.651381)" class="st29">
						<path class="st30" d="M21.1,170.5c0,0-0.1,7.9,4.8,10.7c4.9,2.8,12.5,8,12.5,8l-28.8,1l0.8-19.8L21.1,170.5z"/>
						<path class="st31" d="M8.5,179.2L8,192h6.7l0.5-1.6c0,0,2.5-0.1,4,0.6c1.5,0.8,1.7,1.1,1.7,1.1l21.2,0c0,0,1-4.1-5.4-7.1
							c-6.5-3-11.2-7.2-12.1-7.7c-0.9-0.4-2.7-0.7-4,0.3c-1.3,1-2.3,3.7-5.2,3.8C11.7,181.6,9.6,177.1,8.5,179.2z"/>
						<line id="Path-38" class="st32" x1="26.7" y1="178.7" x2="24.4" y2="180.8"/>
						<line class="st32" x1="29.9" y1="180.3" x2="27.7" y2="182.4"/>
						<line class="st32" x1="33.1" y1="181.9" x2="30.9" y2="184"/>
						<path class="st33" d="M0,0c0,0,8,87.3,8.3,93.4s-2.6,16.5-2.5,27.9c0,7.6,0.4,24.7,1,51.4l17.7,0.4
							c4.9-48.2,7.5-75.9,7.5-83.2C32,79,32.7,1,32.7,1L0,0z"/>
						<path class="st34" d="M12.7,96.1l0,0.2c0.3,3.7-2.1,15.9-7,36.5l0-11.6l0,0c-0.1-11.2,2.7-21.5,2.5-27.6l0-0.3
							c-0.1-2-1-13.3-2.3-27.4l0.6,2.1C10,80.3,12,89.6,12.7,96.1z"/>
					</g>
					<g id="RLeg" transform="translate(10.726651, 111.213509)" class="st29">
						<polygon class="st30" points="6.8,169.6 3.4,190 15.9,190 16.3,169.3 						"/>
						<path class="st31" d="M3.3,181.2L3.2,184l0,0c-1.2,1.4-2.1,4.1-2.7,8.3c0,2.9,19.3,2.8,20.2,0c-0.7-4.5-1.7-7.3-3.2-8.5l0-2.8
							c0-1.4-0.9-2.5-2.2-2.9l-1.7-0.4l0,0c-1.8-2.7-4.3-2.6-6.4,0.3l-1.5,0.3C4.3,178.7,3.3,179.8,3.3,181.2z"/>
						<line id="Path-39" class="st32" x1="7.9" y1="180.3" x2="12.9" y2="180.3"/>
						<line class="st32" x1="7.9" y1="182.7" x2="12.9" y2="182.7"/>
						<line class="st32" x1="8.7" y1="185.1" x2="12.1" y2="185.1"/>
						<path class="st35" d="M13.1,1.1c0,0-5.6,59.9-5.5,71.4C7.7,84,9.3,89.1,7,97.3c-1.6,5.5-3,30.1-4.3,73.9l17.2,1.9
							c7.3-46.9,11.4-73.6,12.2-80.1c1.2-9.7,16-92.7,16-92.7L13.1,1.1z"/>
						<path class="st34" d="M17.7,41.8l-1.1,3.8c-3.1,11.2-5.9,23.1-5.2,40l0,0.8c0.2,3.7-2.2,25-7,63.9l-0.5,2.7
							c-0.5,2.8-0.9,5.2-1.3,7.1l0.1-3.5c0.6-19,2.3-53.2,4.1-59.5C9.3,89.1,7.7,84,7.6,72.5c-0.1-8,2.7-39.8,4.3-58.1l1.2-13.3
							L20.4,1l0,2C20.5,21.9,19.6,34.8,17.7,41.8L17.7,41.8z"/>
					</g>
					<g id="LArm" transform="translate(56.184211, 15.190104)" class="st29">
						<g id="Group-6" transform="translate(51.368421, 0.000000)">
							<path class="st30" d="M1,23.3c0,0-1.4-8-0.9-9.6c0.4-1.4,4.6-3.4,4.6-3.4S12-1.1,13.6,0.1C14.9,1,9.8,9.4,9.8,9.4
								s4.6,4.8,4.6,7c-0.1,2.2-7.5,8.9-7.5,8.9L1,23.3z"/>
							<path class="st36" d="M4.9,10.2c0,0,3.2-0.4,3.7,0.6C9,11.6,6.4,14,6.4,14.7s0,5.8,0.3,5.8s3.2-8.4,2.6-10.1
								C8.7,9,4.9,10.2,4.9,10.2z"/>
						</g>
						<path class="st37" d="M14.1,33.5c-8.4-7.3-21,5.9-7,18.1c5.4,4.7,22.3,16.4,26.4,18.9c6.6,4.1,12,0.4,14.2-6
							c1.9-5.5,13.2-34.6,11.7-38.9c-0.9-2.8-6-5.5-8.5-3.3c-3.7,3.2-15,31.4-15,31.4S23.7,41.8,14.1,33.5z"/>
						<path class="st38" d="M36,53.7c2.5,3,3.8,4.3,4,3.8c0.2-0.5-0.8-2.6-2.9-6.5L36,53.7z"/>
						<path id="Path-41" class="st39" d="M50,24.1c2.9-1.4,6.1,0.3,7.9,3"/>
					</g>
					<g id="Head" transform="translate(33.383738, 0.000000)" class="st29">
						<path class="st40" d="M0.7,40.4c0,0,4.8-1.1,4.9-8.9s0-10.5,0-10.5L17,20.8c0,0,0.1,8.7,0.1,11.8c0,6.8,5.1,8.7,5.1,8.7
							s-0.4,7.5-10,8C4.8,49.8,0.7,40.4,0.7,40.4z"/>
						<g id="Head1" transform="translate(0.470782, 0.000000)">
							
								<linearGradient id="SVGID_1_" gradientUnits="userSpaceOnUse" x1="-610.0976" y1="572.3385" x2="-610.4688" y2="571.8717" gradientTransform="matrix(4.0132 0 0 -9.5937 2476.7861 5503.4238)">
								<stop  offset="0" style="stop-color:#4D63A0"/>
								<stop  offset="1" style="stop-color:#222735"/>
							</linearGradient>
							<path class="st41" d="M26.6,12.6L26.3,20c2.1-2.5,3.6-5.6,4-9.6L26.6,12.6z"/>
							<path class="st30" d="M4.1,17.1c-4.7-0.2-3.9,6.7,0.9,6.7c0,0,5.2,10.5,13.5,10.5c4,0,5.3-3.5,6.4-6c1.2-2.5,2.1-6.2,2.1-8.4
								c0.1-2.4,0.1-10.3,0.1-10.3L4,9.5L4.1,17.1z"/>
							<path class="st42" d="M27.2,13.2H10.9c-0.2,2.9-1.2,5.4-3.6,7.2c0.1,4.3,1.5,7.5,4,9.7c2.2-6.2,15.6-4.5,14.6-0.5
								c-2,8.6-21.2,8.8-20-10.9c-0.8-1-3.5-1.2-4.4-0.2C-0.1,14.1,0.5,8,5,7.1C1.5-2,48.9-4,27.2,13.2z"/>
							<path class="st43" d="M16.7,29.2c0,0,2.1,1.6,4.9-0.1"/>
							<path id="Path-8" class="st44" d="M4.9,21c0-1.1-0.3-2-1.4-2.1"/>
						</g>
					</g>
					<g id="Body" transform="translate(16.855263, 39.174479)" class="st29">
						<path class="st5" d="M19.1,0l13.7,8.9l6.2-7.2c0,0,13,4,15.4,8.8c3.5,6.8-1.1,61.4,0.9,64.7c4.3,7-1.4,11.8-20.1,13.6
							c-18.7,1.8-35.3,0.3-32.3-9c3-9.4-8.6-70.5,1.6-73.8C7.6,4.8,19.1,0,19.1,0z"/>
						<path class="st38" d="M9.9,16.8c0.8,1.5,0.4,6.6-1.3,15.3c-1.4,7.4,0.2,15.1,4.5,21.3l0.2,0.3c1.5,2,2.8,4.7,4,8
							c3,8.1-4,14.9,1.4,27.6l-0.6,0C7.6,88.7,0.7,86,2.8,79.7c2.5-7.7-4.9-50.1-2-67C5.8,13.6,8.8,15,9.9,16.8z"/>
						<path class="st45" d="M19.1,0l12.2,8c-1.8,2.1-2.8,4.5-3.1,7.2c-4.7-3.7-9.6-8.8-11.1-14.4L19.1,0z"/>
						<path class="st45" d="M33.7,7.8c2.1,1.4,3.7,3.9,5.1,6.7C40.4,11.3,41,7,41,2.4l-2-0.8L33.7,7.8z"/>
						
							<linearGradient id="SVGID_2_" gradientUnits="userSpaceOnUse" x1="-690.3417" y1="558.4634" x2="-690.3288" y2="559.1107" gradientTransform="matrix(11.2368 0 0 -62.5668 7794.1245 34992.5352)">
							<stop  offset="0" style="stop-color:#2E4175"/>
							<stop  offset="1" style="stop-color:#222735"/>
						</linearGradient>
						<path class="st46" d="M31.3,8l0.2,0.1c0.7,0.4,1.6,0.3,2.2-0.3l0,0l0,0c4.6,16.9,7.8,35.6,8.8,54.6l-4.8,8l-5.6-7.5
							C32.8,43.2,32.8,23.9,31.3,8z"/>
					</g>
					<g id="RArm" transform="translate(0.000000, 45.466168)" class="st29">
						
							<g id="Example-Book-Back" transform="translate(73.338740, 56.011543) rotate(6.000000) translate(-73.338740, -56.011543) translate(59.838740, 43.011543)">
							<g id="Group-3" transform="translate(0.000000, -0.000000)">
								<path class="st47" d="M2.6,0.7l10.8,0.4c1.3,0.1,2.4,1.1,2.4,2.5l0,18.8c0,1.4-1.1,2.5-2.5,2.5c0,0-0.1,0-0.1,0L2.4,24.5
									C1,24.4,0,23.3,0,22L0,3.2C0,1.8,1.1,0.7,2.6,0.7C2.5,0.7,2.5,0.7,2.6,0.7z"/>
								<path class="st48" d="M4,0.2l11.6,1l0,0l7.7-0.9c1.4-0.2,2.6,0.8,2.7,2.1c0,0.1,0,0.2,0,0.3l0,18.8c0,1.2-0.9,2.3-2.2,2.4
									l-8.3,1l0,0L3.5,23.9c-1.3-0.1-2.2-1.2-2.2-2.5l0-18.8c0-1.4,1.1-2.5,2.5-2.5C3.8,0.2,3.9,0.2,4,0.2z"/>
								<path class="st49" d="M5.6,5.2l5.1,0.4c0.8,0.1,1.5,0.8,1.5,1.6l0,1.9c0,0.9-0.7,1.6-1.6,1.6c0,0-0.1,0-0.1,0l-5.1-0.4
									c-0.8-0.1-1.5-0.8-1.5-1.6l0-1.9c0-0.9,0.7-1.6,1.6-1.6C5.5,5.2,5.5,5.2,5.6,5.2z"/>
								<path class="st50" d="M15.6,1.3l0.3,0c0.4,0,0.8,0.4,0.8,0.8l0,22.1c0,0.4-0.4,0.8-0.8,0.8h-0.3c-0.4,0-0.8-0.4-0.8-0.8
									l0-22.1C14.8,1.6,15.1,1.3,15.6,1.3z"/>
								<path class="st51" d="M16.2,1.3l0.3,0c0.4,0,0.8,0.4,0.8,0.8l0,22.1c0,0.4-0.4,0.8-0.8,0.8h-0.3c-0.4,0-0.8-0.4-0.8-0.8
									l0-22.1C15.4,1.6,15.8,1.3,16.2,1.3z"/>
							</g>
						</g>
						<path class="st30" d="M49,53.2c0,0,4.2-0.8,5.9-2.2c1.7-1.3,6.9-2.3,6.9-2.3l-1.7,3.5c0,0,12.7-1.2,13,0.1
							c0.3,1.2-3.4,2.6-3.4,2.6s-1.8,3.4-3.6,5.3c-1.7,1.8-9.9,1.6-12.8,0.5c-2.5-1-5.2-0.5-5.2-0.5L49,53.2z"/>
						<path class="st37" d="M15.4,4.8C20-5,35.5,1.6,31.6,12c-3.8,10.1-13,33.7-13,33.7s29.1,3.7,31.3,5.4c3,2.3,1.2,8.8-1.4,10
							c-2.2,1-18.3,1.6-34.1,0.3C6.6,60.8,0.8,57.5,0,48.8C-0.5,42.7,11.1,14.2,15.4,4.8z"/>
						<path class="st38" d="M18.6,45.8c-1.6,3-2.2,4.6-1.7,4.7s1.9-1.4,4.2-4.3L18.6,45.8z"/>
						<path id="Path-40" class="st39" d="M47.9,50.6c0.9,2.8,0.3,6.2-1,8.6"/>
					</g>
				</g>
				
					<g id="Example-Paper" transform="translate(378.830750, 198.840931) scale(-1, 1) rotate(32.000000) translate(-378.830750, -198.840931) translate(363.265213, 179.640931)">
					<path class="st52" d="M0,0l26.8,0c0,6.4,0,12.8,0,19.2c0,6.4,1.3,12.8,3.8,19.2l-26.8,0C1.3,32,0,25.6,0,19.2S0,6.4,0,0z"/>
					<line id="Path-4" class="st53" x1="5.6" y1="7.8" x2="19.5" y2="7.8"/>
					<line class="st53" x1="5.9" y1="13" x2="19.9" y2="13"/>
					<line class="st53" x1="6.3" y1="18.1" x2="20.3" y2="18.1"/>
					<line class="st53" x1="6.7" y1="23.3" x2="20.7" y2="23.3"/>
				</g>
				<g id="Wom4.6" transform="translate(368.000000, 135.000000)" class="st28">
					<g transform="translate(77.917345, 94.809122)" class="st29">
						<path class="st54" d="M29.3,157.7c-0.1,3.7-0.1,6.1-0.1,7.3c0,1.4,0.1,5.4-0.1,6c-0.1,0.6-0.3,1.6-0.4,3l11.6,0.3
							c-2-3.8-3-6-3.1-6.5c-0.1-0.5-0.6-3.9-1.5-10.2H29.3z"/>
						<path class="st35" d="M38.2,172.3c-0.3-0.2-1.8-3.8-4.6-3.8c-3.1,0-4,3.6-4.1,3.8c-0.2,0.2-1,0.1-1.2,0.5
							c-0.9,1.7-1.4,5.2-0.6,6.5c0.9,1.3,13.4,1.4,14.1,0.1c0.7-1.3-1-5-2.3-6.6C39.2,172.4,38.3,172.4,38.2,172.3z"/>
						<path class="st55" d="M0,2.5L22.7,0l0.3,0.3c1.6,1.5,8.7,8.7,10.7,18.6c3.8,18.6-1.3,52.8-1.2,60.4c0.1,7.5,3.7,12.1,5.1,22.7
							s1.6,58.1,1.6,58.1c-3.9,2.3-7.3,2.5-12-0.1L0,2.5z"/>
						<path class="st56" d="M20.3,119.5L0,2.5l12.6-1.4C13.2,41.8,21.1,96.7,20.3,119.5z"/>
					</g>
					<g transform="translate(54.525290, 98.029216)" class="st29">
						<path class="st54" d="M28.1,154l-8.3,0.1c0.3,5.2-0.5,8.7-2.4,10.4l-10.8,5.9c-0.8,0.7-1.3,2.9,0.4,3.2
							c5.4,1,20.8-1.3,20.8-1.3L28.1,154z"/>
						<path class="st35" d="M27.8,165.2c-0.6,0-1.3,3.2-4.4,4.8c-3.6,1.9-8.9,1.1-11.2,1.4c-1.1,0.1-1.9-0.9-2.5-3.1
							c-5.6,2.9-8.6,5-9.1,6.4c-0.9,2.4,4.8,2.6,8.8,2.4c4-0.2,7.5-2,9.4-1.9c2,0,2.4,1.3,3.9,1.6c1.5,0.3,5.2,0.3,5.5-0.8
							C28.6,174.8,29,165.1,27.8,165.2z"/>
						<path class="st57" d="M12.1,0.9L37.6,0l0.2,0.4c1.2,2.4,8,16.2,5.9,31.8c-2.9,22-12,47.8-12.4,51.8c-0.7,7,0.7,12.1,1.2,19.4
							s-2.8,52.9-2.8,52.9c-3.8,2.3-8.3,2.7-14,0.1C12.8,115,11.3,91,11.3,84.5C11.2,74.7,12.1,0.9,12.1,0.9z"/>
						<path class="st56" d="M17.4,24.7l-0.2,1.6c-1.8,17.2-3.3,53.7-2.6,59.4l0.1,0.7c0.7,6.2,0.5,21.8-0.6,46.8l-1-14.3
							c-1.2-17.8-1.8-29-1.8-33.7l0-0.7c0-9.8,0.8-83.6,0.8-83.6l5.4-0.2C18.1,10.1,18,18.1,17.4,24.7z"/>
					</g>
					<g transform="translate(74.091961, 10.694514)" class="st29">
						
							<linearGradient id="SVGID_3_" gradientUnits="userSpaceOnUse" x1="-1119.2548" y1="550.4062" x2="-1119.1968" y2="549.0128" gradientTransform="matrix(24.9012 0 0 -28.6782 27882.332 15777.0059)">
							<stop  offset="0" style="stop-color:#FDC6C6"/>
							<stop  offset="1" style="stop-color:#A47070"/>
						</linearGradient>
						<path class="st58" d="M2.3,6.7c-3.1,0.3-2.9,5.9,0.9,6.2c0.8,5.3,3.6,7.9,7,8.2L10,29.1l15,0c0,0-4.2-5.7-4-13.5
							c0.2-7.8-0.1-15.2-0.1-15.2L1.4,0.8L2.3,6.7z"/>
					</g>
					<g transform="translate(97.333333, 32.800000)" class="st29">
						<path class="st54" d="M35.4,23c0,0-0.7-4.5-0.4-7.4c0.4-5.5-0.4-10.1,0.8-10.8c1.5-0.9,2.5,7.7,2.5,7.7s7.4-14.1,9.2-12.4
							c1.8,1.7-1.2,8.5-0.6,10.7c0.6,2.2-5.4,12.8-5.4,12.8l-10.8,28l-3.7-15.2L35.4,23z"/>
						<path class="st59" d="M3.1,28.8c0,0,13.2,20.9,16.2,24.9c3.1,4.2,8.5,6.1,12.3-0.6c0.5-0.8,1.3-2.4,2.5-4.7
							c-1-6.2-3.1-11.4-7.5-14.2c-1.3,1.9-1.9,2.8-1.9,2.8s-8.8-16.2-11.5-20C5.8,6.8-5.5,16,3.1,28.8z"/>
					</g>
					<g transform="translate(63.146106, 38.035778)" class="st29">
						<path class="st60" d="M9.3,3.3C5.9,8.3,0.3,25,0,28.8c-0.4,4.4,4.3,11.3,4.4,17.6C4.5,52.7,0.9,73.3,2,75
							c0.7,1.1,17.1,6.8,30.5,5.3c11.6-1.3,16.2-8.8,15.6-10.1c-1.6-3.7-8.8-14.5-8.1-19.5c0.7-5,5-23.6,7.1-29.9
							c2.1-6.3,1.4-12.9-2.5-15.7C42.6,3.8,37.4,0,28.2,0C19,0,9.5,2.9,9.3,3.3z"/>
						<path class="st38" d="M4.4,14L4.5,14c6.2-3.1,9.9-3.2,11.2-0.4C17.3,17.1,13.4,27,4,43.1c-1.1-5.3-4.3-10.7-4-14.3
							C0.2,26.6,2.2,20.1,4.4,14z"/>
					</g>
					<g transform="translate(0.000000, 40.800000)" class="st29">
						<path class="st54" d="M18.2,40.7c0,0-9.3,0.5-10.9-0.8c-1.6-1.3-8-7.9-7.3-9.4c0.7-1.5,8.1,1.7,8.6,0.7c0.6-1.3-2.7-5.8,0.2-6
							c0.7-0.1,1.3,2.7,3.4,4.5c2.1,1.8,6.3,5.1,6.3,5.1l32-5.1l3,10.3L18.2,40.7z"/>
						<path class="st59" d="M69.5,2.8c-7.3,7-17.7,23.4-19.9,24.8c-0.3,0.2-1.9,0.9-4.7,2c-1.8,4.7,1.2,10,5.6,12.3
							c3.2-0.5,5.1-0.8,5.9-1C62,39.3,72,24.1,76.2,19.3C87.6,6,76.8-4.2,69.5,2.8z"/>
					</g>
					<path class="st61" d="M113.2,39.2c-7.7-12.3-9.3-27.9-14.8-33.2c-4.3-4.2-11.2-3-11.2-3s-6-5-11.8,0c-5.8,5-5.9,22.4-1.9,33.4
						C77.6,47.3,81.9,60,97.8,60C106.8,60,121.9,53.1,113.2,39.2z"/>
				</g>
				<g id="Group-28" transform="translate(481.000000, 79.000000)">
					<path class="st23" d="M7.8,3.1h34.5c4.3,0,7.8,3.5,7.8,7.8v44c0,4.3-3.5,7.8-7.8,7.8H7.8C3.5,62.8,0,59.3,0,55v-44
						C0,6.6,3.5,3.1,7.8,3.1z"/>
					<path class="st7" d="M9.4,7.3h31.3c2.9,0,5.2,2.3,5.2,5.2v40.9c0,2.9-2.3,5.2-5.2,5.2H9.4c-2.9,0-5.2-2.3-5.2-5.2V12.5
						C4.2,9.6,6.5,7.3,9.4,7.3z"/>
					<g id="Group-29" transform="translate(34.432895, 42.885057)">
						<ellipse class="st26" cx="13" cy="13.1" rx="13" ry="13.1"/>
						<path class="st7" d="M16.6,8.9c0.4-0.6,1.2-0.8,1.8-0.5c0.6,0.3,0.8,1.1,0.5,1.7l-0.1,0.1l-4.4,7.5c-0.1,0.2-0.2,0.3-0.3,0.4
							c-0.9,0.9-2.2,1-3.2,0.2l-0.1-0.1L7.4,15c-0.5-0.5-0.5-1.3,0-1.8c0.5-0.5,1.2-0.5,1.7-0.1l0.1,0.1l3.1,3L16.6,8.9z"/>
					</g>
					<path class="st12" d="M11.5,18.8h27.1c0.6,0,1,0.5,1,1s-0.5,1-1,1H11.5c-0.6,0-1-0.5-1-1S10.9,18.8,11.5,18.8z"/>
					<path class="st12" d="M11.5,27.2h27.1c0.6,0,1,0.5,1,1s-0.5,1-1,1H11.5c-0.6,0-1-0.5-1-1S10.9,27.2,11.5,27.2z"/>
					<path class="st12" d="M11.5,35.6h27.1c0.6,0,1,0.5,1,1s-0.5,1-1,1H11.5c-0.6,0-1-0.5-1-1S10.9,35.6,11.5,35.6z"/>
					<rect x="11.5" class="st23" width="27.1" height="11.5"/>
				</g>
				<g id="Icon17" transform="translate(258.000000, 199.000000)">
					<circle class="st23" cx="14.8" cy="14.8" r="14.8"/>
					<path class="st62" d="M13.2,6.6c0-0.3,0.3-0.6,0.6-0.5l0.1,0l6.9,0.9c0.3,0,0.6,0.3,0.5,0.6l0,0.1l-0.9,6.8
						c0,0.2-0.1,0.3-0.2,0.4C20,15,19.6,15,19.4,14.8l0,0l-1.2-1.6l-6.5,5c-0.3,0.2-0.6,0.2-0.8-0.1l0,0l-1-1.3l-0.6,5.6l5.5,0.7
						l-1-1.3c-0.2-0.3-0.2-0.6,0.1-0.8l0,0l4.6-3.6c0.2-0.2,0.6-0.1,0.7,0.1c0.2,0.2,0.1,0.5-0.1,0.7l0,0l-4.2,3.3l1.4,1.8
						c0.2,0.3,0.2,0.6-0.1,0.8l0,0c-0.1,0.1-0.3,0.1-0.4,0.1l-0.1,0l-7-0.9C8.2,23.3,8,23,8,22.7l0-0.1l0.8-7.1
						c0-0.3,0.3-0.6,0.7-0.6c0.1,0,0.3,0.1,0.4,0.2l0,0l1.4,1.8l6.5-5c0.3-0.2,0.6-0.2,0.8,0.1l0,0l0.9,1.1l0.7-5.3l-5.4-0.7l1,1.2
						C16,8.7,16,9,15.7,9.3l0,0l-4.5,3.5c-0.2,0.2-0.6,0.1-0.7-0.1c-0.2-0.2-0.1-0.5,0.1-0.7l0,0l4.1-3.2L13.3,7
						C13.3,6.9,13.2,6.8,13.2,6.6L13.2,6.6z"/>
				</g>
			</g>
		</g>
	</g>
</g>
</svg>
