<?xml version="1.0" encoding="utf-8"?>
<!-- Generator: Adobe Illustrator 23.0.0, SVG Export Plug-In . SVG Version: 6.00 Build 0)  -->
<svg version="1.1" id="Layer_1" xmlns="http://www.w3.org/2000/svg" xmlns:xlink="http://www.w3.org/1999/xlink" x="0px" y="0px"
	 viewBox="0 0 546 482" style="enable-background:new 0 0 546 482;" xml:space="preserve">
<style type="text/css">
	.st0{opacity:5.282738e-02;fill:#7367F0;enable-background:new    ;}
	.st1{opacity:0.141;fill:#8BF78F;enable-background:new    ;}
	.st2{fill-rule:evenodd;clip-rule:evenodd;fill:#7367F0;fill-opacity:6.121613e-02;}
	.st3{opacity:0.141;fill-rule:evenodd;clip-rule:evenodd;fill:#CEF5FF;enable-background:new    ;}
	.st4{filter:url(#filter-2);}
	.st5{opacity:0.1359;fill-rule:evenodd;clip-rule:evenodd;fill:#7367F0;}
	.st6{fill-rule:evenodd;clip-rule:evenodd;fill:#C4E3E7;}
	.st7{fill-rule:evenodd;clip-rule:evenodd;fill:#FFFFFF;}
	.st8{filter:url(#Adobe_OpacityMaskFilter);}
	.st9{opacity:9.877232e-02;mask:url(#mask-4_1_);fill-rule:evenodd;clip-rule:evenodd;fill:#7367F0;enable-background:new    ;}
	.st10{filter:url(#Adobe_OpacityMaskFilter_1_);}
	.st11{opacity:0.141;mask:url(#mask-4_2_);fill-rule:evenodd;clip-rule:evenodd;fill:#C8F5D0;enable-background:new    ;}
	.st12{filter:url(#Adobe_OpacityMaskFilter_2_);}
	.st13{mask:url(#mask-4_3_);fill-rule:evenodd;clip-rule:evenodd;fill:#68DE9E;fill-opacity:0.6421;}
	.st14{fill:#56CDD9;}
	.st15{fill-rule:evenodd;clip-rule:evenodd;fill:url(#SVGID_1_);}
	.st16{fill-rule:evenodd;clip-rule:evenodd;fill:url(#SVGID_2_);}
	.st17{fill-rule:evenodd;clip-rule:evenodd;fill:#FFCC7B;}
	.st18{fill-rule:evenodd;clip-rule:evenodd;fill:#B7B1FB;}
	.st19{filter:url(#Adobe_OpacityMaskFilter_3_);}
	.st20{mask:url(#mask-8_1_);}
	.st21{opacity:0.34;fill:#7367F0;enable-background:new    ;}
	.st22{fill-rule:evenodd;clip-rule:evenodd;fill:#6FD9E6;}
	.st23{filter:url(#Adobe_OpacityMaskFilter_4_);}
	.st24{mask:url(#mask-10_1_);}
	.st25{fill:#BAF3C4;}
	.st26{filter:url(#Adobe_OpacityMaskFilter_5_);}
	.st27{mask:url(#mask-12_1_);fill-rule:evenodd;clip-rule:evenodd;fill:#FFFFFF;}
	.st28{filter:url(#Adobe_OpacityMaskFilter_6_);}
	.st29{mask:url(#mask-12_2_);fill-rule:evenodd;clip-rule:evenodd;fill:#28C76F;}
	.st30{filter:url(#Adobe_OpacityMaskFilter_7_);}
	.st31{mask:url(#mask-12_3_);fill-rule:evenodd;clip-rule:evenodd;fill:#69E09E;}
	.st32{filter:url(#filter-14);}
	.st33{fill-rule:evenodd;clip-rule:evenodd;}
	.st34{filter:url(#filter-16);}
	.st35{fill-rule:evenodd;clip-rule:evenodd;fill:#7367F0;}
	.st36{display:none;}
	.st37{display:inline;}
	.st38{fill-rule:evenodd;clip-rule:evenodd;fill:url(#SVGID_3_);}
	.st39{fill-rule:evenodd;clip-rule:evenodd;fill:#FD8715;}
	.st40{fill-rule:evenodd;clip-rule:evenodd;fill-opacity:0.1599;}
	.st41{fill-rule:evenodd;clip-rule:evenodd;fill:#FFEDC2;}
	.st42{fill-rule:evenodd;clip-rule:evenodd;fill:url(#SVGID_4_);}
	.st43{fill-rule:evenodd;clip-rule:evenodd;fill:#391B0B;}
	.st44{fill-rule:evenodd;clip-rule:evenodd;fill:#4E3319;}
	.st45{fill-rule:evenodd;clip-rule:evenodd;fill:#FFFFFF;fill-opacity:0.1925;}
	.st46{fill-rule:evenodd;clip-rule:evenodd;fill:url(#SVGID_5_);}
	.st47{fill-rule:evenodd;clip-rule:evenodd;fill:#604021;}
	.st48{fill-rule:evenodd;clip-rule:evenodd;fill:url(#SVGID_6_);}
	.st49{fill-rule:evenodd;clip-rule:evenodd;fill:#8B5030;}
	.st50{fill-rule:evenodd;clip-rule:evenodd;fill-opacity:0.1994;}
	.st51{fill-rule:evenodd;clip-rule:evenodd;fill:#FB9934;}
	.st52{fill-rule:evenodd;clip-rule:evenodd;fill:#FFF6E1;}
	.st53{fill-rule:evenodd;clip-rule:evenodd;fill:url(#SVGID_7_);}
	.st54{display:inline;fill-rule:evenodd;clip-rule:evenodd;fill:#8B5030;}
	.st55{fill-rule:evenodd;clip-rule:evenodd;fill:#28C76F;}
	.st56{fill-rule:evenodd;clip-rule:evenodd;fill:#1CA258;}
</style>
<filter  filterUnits="objectBoundingBox" height="131.0%" id="filter-2" width="130.8%" x="-15.4%" y="-15.5%">
	<feGaussianBlur  in="SourceGraphic" stdDeviation="3"></feGaussianBlur>
</filter>
<filter  filterUnits="objectBoundingBox" height="317.4%" id="filter-16" width="320.0%" x="-91.1%" y="-87.6%">
	<feOffset  dx="8" dy="9" in="SourceAlpha" result="shadowOffsetOuter1"></feOffset>
	<feGaussianBlur  in="shadowOffsetOuter1" result="shadowBlurOuter1" stdDeviation="14"></feGaussianBlur>
	
		<feColorMatrix  in="shadowBlurOuter1" result="shadowMatrixOuter1" type="matrix" values="0 0 0 0 0.0755212756   0 0 0 0 0.582569014   0 0 0 0 0.878793025  0 0 0 0.229458042 0">
		</feColorMatrix>
	<feOffset  dx="0" dy="2" in="SourceAlpha" result="shadowOffsetOuter2"></feOffset>
	<feGaussianBlur  in="shadowOffsetOuter2" result="shadowBlurOuter2" stdDeviation="7.5"></feGaussianBlur>
	
		<feColorMatrix  in="shadowBlurOuter2" result="shadowMatrixOuter2" type="matrix" values="0 0 0 0 0.50398247   0 0 0 0 0.700178215   0 0 0 0 1  0 0 0 0.233828671 0">
		</feColorMatrix>
	<feMerge>
		<feMergeNode  in="shadowMatrixOuter1"></feMergeNode>
		<feMergeNode  in="shadowMatrixOuter2"></feMergeNode>
	</feMerge>
</filter>
<filter  filterUnits="objectBoundingBox" height="167.5%" id="filter-14" width="184.5%" x="-35.0%" y="-27.2%">
	<feOffset  dx="8" dy="9" in="SourceAlpha" result="shadowOffsetOuter1"></feOffset>
	<feGaussianBlur  in="shadowOffsetOuter1" result="shadowBlurOuter1" stdDeviation="14"></feGaussianBlur>
	
		<feColorMatrix  in="shadowBlurOuter1" result="shadowMatrixOuter1" type="matrix" values="0 0 0 0 0.0755212756   0 0 0 0 0.582569014   0 0 0 0 0.878793025  0 0 0 0.229458042 0">
		</feColorMatrix>
	<feOffset  dx="0" dy="2" in="SourceAlpha" result="shadowOffsetOuter2"></feOffset>
	<feGaussianBlur  in="shadowOffsetOuter2" result="shadowBlurOuter2" stdDeviation="7.5"></feGaussianBlur>
	
		<feColorMatrix  in="shadowBlurOuter2" result="shadowMatrixOuter2" type="matrix" values="0 0 0 0 0.50398247   0 0 0 0 0.700178215   0 0 0 0 1  0 0 0 0.233828671 0">
		</feColorMatrix>
	<feMerge>
		<feMergeNode  in="shadowMatrixOuter1"></feMergeNode>
		<feMergeNode  in="shadowMatrixOuter2"></feMergeNode>
	</feMerge>
</filter>
<title>Illustration</title>
<g>
	<g id="Not-Authorized" transform="translate(-444.000000, -309.000000)">
		<g id="Illustration" transform="translate(450.000000, 309.000000)">
			<g id="Shape">
				<path id="Oval" class="st0" d="M393.6,0C474.5,0,540,65.3,540,145.8s-65.5,145.8-146.4,145.8s-146.4-65.3-146.4-145.8
					S312.7,0,393.6,0z M393.6,54.5c-50.6,0-91.7,40.9-91.7,91.3s41,91.3,91.7,91.3s91.7-40.9,91.7-91.3S444.2,54.5,393.6,54.5z"/>
				<path class="st1" d="M41.5,189.8c22.9,0,41.5,18.5,41.5,41.3s-18.6,41.3-41.5,41.3S0,253.9,0,231.1S18.6,189.8,41.5,189.8z
					 M41.5,217.1c-7.8,0-14.1,6.3-14.1,14.1c0,7.8,6.3,14.1,14.1,14.1s14.1-6.3,14.1-14.1C55.6,223.4,49.3,217.1,41.5,217.1z"/>
				<ellipse class="st2" cx="169.7" cy="363.3" rx="82.1" ry="81.7"/>
				<ellipse class="st3" cx="142.3" cy="77.2" rx="29.2" ry="29.1"/>
				<g class="st4">
					<ellipse class="st5" cx="486.2" cy="363.3" rx="29.2" ry="29.1"/>
				</g>
			</g>
			<g id="File-Organizer" transform="translate(113.000000, 100.000000)">
				<g id="Phone3" transform="translate(55.886614, 0.000000)">
					<path id="Rectangle" class="st6" d="M25.1,0h134.6c13.9,0,25.1,11.3,25.1,25.1v329.5c0,13.9-11.3,25.1-25.1,25.1H25.1
						C11.3,379.8,0,368.5,0,354.6V25.1C0,11.3,11.3,0,25.1,0z"/>
					<g id="Group-48" transform="translate(6.666540, 7.653065)">
						<g>
							<path class="st7" d="M18.5,0h21.3c1.6,0,3,1.3,3,2.9L42.9,5c0.1,2.8,2.4,5,5.1,5h74.9c2.8,0,5.1-2.2,5.1-5l0.1-2.1
								c0-1.6,1.4-2.9,3-2.9h21.3c10.2,0,18.5,8.3,18.5,18.5v325.2c0,10.2-8.3,18.5-18.5,18.5H18.5C8.3,362.2,0,353.9,0,343.7V18.5
								C0,8.3,8.3,0,18.5,0z"/>
						</g>
						<defs>
							<filter id="Adobe_OpacityMaskFilter" filterUnits="userSpaceOnUse" x="50.1" y="205.9" width="29.3" height="29">
								<feColorMatrix  type="matrix" values="1 0 0 0 0  0 1 0 0 0  0 0 1 0 0  0 0 0 1 0"/>
							</filter>
						</defs>
						<mask maskUnits="userSpaceOnUse" x="50.1" y="205.9" width="29.3" height="29" id="mask-4_1_">
							<g class="st8">
								<path id="path-3_1_" class="st7" d="M18.5,0h21.3c1.6,0,3,1.3,3,2.9L42.9,5c0.1,2.8,2.4,5,5.1,5h74.9c2.8,0,5.1-2.2,5.1-5
									l0.1-2.1c0-1.6,1.4-2.9,3-2.9h21.3c10.2,0,18.5,8.3,18.5,18.5v325.2c0,10.2-8.3,18.5-18.5,18.5H18.5
									C8.3,362.2,0,353.9,0,343.7V18.5C0,8.3,8.3,0,18.5,0z"/>
							</g>
						</mask>
						<ellipse class="st9" cx="64.8" cy="220.5" rx="14.7" ry="14.5"/>
						<defs>
							<filter id="Adobe_OpacityMaskFilter_1_" filterUnits="userSpaceOnUse" x="81.7" y="205.9" width="141.5" height="140.1">
								<feColorMatrix  type="matrix" values="1 0 0 0 0  0 1 0 0 0  0 0 1 0 0  0 0 0 1 0"/>
							</filter>
						</defs>
						<mask maskUnits="userSpaceOnUse" x="81.7" y="205.9" width="141.5" height="140.1" id="mask-4_2_">
							<g class="st10">
								<path id="path-3_2_" class="st7" d="M18.5,0h21.3c1.6,0,3,1.3,3,2.9L42.9,5c0.1,2.8,2.4,5,5.1,5h74.9c2.8,0,5.1-2.2,5.1-5
									l0.1-2.1c0-1.6,1.4-2.9,3-2.9h21.3c10.2,0,18.5,8.3,18.5,18.5v325.2c0,10.2-8.3,18.5-18.5,18.5H18.5
									C8.3,362.2,0,353.9,0,343.7V18.5C0,8.3,8.3,0,18.5,0z"/>
							</g>
						</mask>
						<path class="st11" d="M152.5,205.9c39.1,0,70.8,31.4,70.8,70.1s-31.7,70.1-70.8,70.1S81.7,314.7,81.7,276
							S113.4,205.9,152.5,205.9z M152.5,236.6c-22,0-39.9,17.7-39.9,39.5s17.8,39.5,39.9,39.5s39.9-17.7,39.9-39.5
							S174.5,236.6,152.5,236.6z"/>
						<defs>
							<filter id="Adobe_OpacityMaskFilter_2_" filterUnits="userSpaceOnUse" x="20.8" y="62.2" width="130.6" height="9.5">
								<feColorMatrix  type="matrix" values="1 0 0 0 0  0 1 0 0 0  0 0 1 0 0  0 0 0 1 0"/>
							</filter>
						</defs>
						<mask maskUnits="userSpaceOnUse" x="20.8" y="62.2" width="130.6" height="9.5" id="mask-4_3_">
							<g class="st12">
								<path id="path-3_3_" class="st7" d="M18.5,0h21.3c1.6,0,3,1.3,3,2.9L42.9,5c0.1,2.8,2.4,5,5.1,5h74.9c2.8,0,5.1-2.2,5.1-5
									l0.1-2.1c0-1.6,1.4-2.9,3-2.9h21.3c10.2,0,18.5,8.3,18.5,18.5v325.2c0,10.2-8.3,18.5-18.5,18.5H18.5
									C8.3,362.2,0,353.9,0,343.7V18.5C0,8.3,8.3,0,18.5,0z"/>
							</g>
						</mask>
						<path class="st13" d="M25.6,62.2h121c2.6,0,4.8,2.1,4.8,4.8s-2.1,4.8-4.8,4.8h-121c-2.6,0-4.8-2.1-4.8-4.8S23,62.2,25.6,62.2z
							"/>
					</g>
					<path id="Path" class="st14" d="M102.4,6.6c1.6,0,2.9,1.2,2.9,2.7c0,1.5-1.2,2.7-2.8,2.7l-0.1,0H70.1c-1.6,0-2.9-1.2-2.9-2.7
						c0-1.5,1.2-2.7,2.8-2.7l0.1,0H102.4z"/>
					<path class="st14" d="M114,6.2c1.6,0,2.9,1.3,2.9,2.8c0,1.5-1.2,2.8-2.8,2.8l-0.1,0h-0.2c-1.6,0-2.9-1.3-2.9-2.8
						c0-1.5,1.2-2.8,2.8-2.8l0.1,0H114z"/>
				</g>
				<g id="Group-37" transform="translate(67.796876, 127.883638)">
					
						<linearGradient id="SVGID_1_" gradientUnits="userSpaceOnUse" x1="-860.7643" y1="547.3163" x2="-860.7643" y2="548.4731" gradientTransform="matrix(59.484 0 0 -49.7635 51231.418 27277.3965)">
						<stop  offset="0" style="stop-color:#FF8C19"/>
						<stop  offset="1" style="stop-color:#FFC967"/>
					</linearGradient>
					<path class="st15" d="M4,0.6h5.4c2,0,3.7,1.6,3.7,3.7v2.4c0,0.7,0.5,1.2,1.2,1.2h41.2c2.2,0,4,1.8,4,4v34.5c0,2.2-1.8,4-4,4H4
						c-2.2,0-4-1.8-4-4V4.6C0,2.4,1.8,0.6,4,0.6z"/>
					
						<linearGradient id="SVGID_2_" gradientUnits="userSpaceOnUse" x1="-859.7" y1="547.1179" x2="-859.7" y2="547.7065" gradientTransform="matrix(54.4579 0 0 -44.5798 46851.9922 24408.4805)">
						<stop  offset="0" style="stop-color:#F8FDFF"/>
						<stop  offset="1" style="stop-color:#AAD4FF"/>
					</linearGradient>
					<path class="st16" d="M15.3,4.1h45.2c0.7,0,1.2,0.5,1.2,1.2c0,0.1,0,0.1,0,0.2l-6.8,42.1c-0.1,0.6-0.6,1-1.2,1H8.5
						c-0.7,0-1.2-0.5-1.2-1.2c0-0.1,0-0.1,0-0.2l6.8-42.1C14.2,4.5,14.7,4.1,15.3,4.1z"/>
					<path class="st17" d="M66.4,20.2l-4.8,24.3c-0.7,3.8-4,6.5-7.9,6.5h-49c-2.2,0-4-1.8-4-4c0-0.3,0-0.5,0.1-0.8l4.8-24.3
						c0.7-3.8,4-6.5,7.9-6.5h49c2.2,0,4,1.8,4,4C66.5,19.7,66.5,19.9,66.4,20.2z"/>
				</g>
				<g id="Group-28" transform="translate(0.000000, 81.627854)">
					<path class="st18" d="M6,0h27.3l0,0L44,10.9v34.8c0,3.3-2.7,6-6,6H6c-3.3,0-6-2.7-6-6V6C0,2.7,2.7,0,6,0z"/>
					<g id="Icon" transform="translate(8.950131, 16.522567)">
						<g id="Mask">
							<path d="M19.7,3.6v14.3c0,1.5-1.2,2.7-2.7,2.7h-4.5c-0.5,0-0.9-0.4-0.9-0.9s0.4-0.9,0.9-0.9H17c0.5,0,0.9-0.4,0.9-0.9V3.6
								c0-0.5-0.4-0.9-0.9-0.9h-4.5c-0.5,0-0.9-0.4-0.9-0.9s0.4-0.9,0.9-0.9H17C18.5,0.9,19.7,2.1,19.7,3.6z M14.2,11.1
								c0.1-0.2,0.1-0.4,0-0.7c-0.1-0.1-0.1-0.2-0.2-0.3l-3.6-3.6c-0.4-0.4-0.9-0.4-1.3,0c-0.4,0.4-0.4,0.9,0,1.2l2.1,2.1H2.7
								c-0.5,0-0.9,0.4-0.9,0.9s0.4,0.9,0.9,0.9h8.6l-2.1,2.1c-0.4,0.4-0.4,0.9,0,1.2c0.2,0.2,0.4,0.3,0.6,0.3s0.4-0.1,0.6-0.3
								l3.6-3.6C14.1,11.2,14.2,11.2,14.2,11.1z"/>
						</g>
						<defs>
							<filter id="Adobe_OpacityMaskFilter_3_" filterUnits="userSpaceOnUse" x="0" y="0" width="21.5" height="21.4">
								<feColorMatrix  type="matrix" values="1 0 0 0 0  0 1 0 0 0  0 0 1 0 0  0 0 0 1 0"/>
							</filter>
						</defs>
						<mask maskUnits="userSpaceOnUse" x="0" y="0" width="21.5" height="21.4" id="mask-8_1_">
							<g class="st19">
								<path id="path-7_1_" class="st7" d="M19.7,3.6v14.3c0,1.5-1.2,2.7-2.7,2.7h-4.5c-0.5,0-0.9-0.4-0.9-0.9s0.4-0.9,0.9-0.9H17
									c0.5,0,0.9-0.4,0.9-0.9V3.6c0-0.5-0.4-0.9-0.9-0.9h-4.5c-0.5,0-0.9-0.4-0.9-0.9s0.4-0.9,0.9-0.9H17
									C18.5,0.9,19.7,2.1,19.7,3.6z M14.2,11.1c0.1-0.2,0.1-0.4,0-0.7c-0.1-0.1-0.1-0.2-0.2-0.3l-3.6-3.6c-0.4-0.4-0.9-0.4-1.3,0
									c-0.4,0.4-0.4,0.9,0,1.2l2.1,2.1H2.7c-0.5,0-0.9,0.4-0.9,0.9s0.4,0.9,0.9,0.9h8.6l-2.1,2.1c-0.4,0.4-0.4,0.9,0,1.2
									c0.2,0.2,0.4,0.3,0.6,0.3s0.4-0.1,0.6-0.3l3.6-3.6C14.1,11.2,14.2,11.2,14.2,11.1z"/>
							</g>
						</mask>
						<g id="Group" class="st20">
							<g id="Icon-Color">
								<rect x="0" y="0" class="st7" width="21.5" height="21.4"/>
							</g>
						</g>
					</g>
					<path class="st21" d="M44,10.9h-7.7c-1.7,0-3-1.3-3-3V0l0,0L44,10.9z"/>
				</g>
				<g transform="translate(19.239654, 215.860326)">
					<path class="st22" d="M6,0h50.3c3.3,0,6,2.7,6,6v39.7c0,3.3-2.7,6-6,6H6c-3.3,0-6-2.7-6-6V6C0,2.7,2.7,0,6,0z"/>
					<g transform="translate(17.900262, 13.384148)">
						<g>
							<path d="M19.8,10.4h-1V7.3C18.8,3.9,16,1,12.5,1S6.3,3.9,6.3,7.3v3.1h-1c-1.8,0-3.1,1.4-3.1,3.1v7.3c0,1.8,1.4,3.1,3.1,3.1
								h14.6c1.8,0,3.1-1.4,3.1-3.1v-7.3C23,11.8,21.6,10.4,19.8,10.4z M8.4,7.3c0-2.3,1.9-4.2,4.2-4.2s4.2,1.9,4.2,4.2v3.1H8.4V7.3
								z M20.9,20.8c0,0.6-0.4,1-1,1H5.2c-0.6,0-1-0.4-1-1v-7.3c0-0.6,0.4-1,1-1h14.6c0.6,0,1,0.4,1,1V20.8z"/>
						</g>
						<defs>
							<filter id="Adobe_OpacityMaskFilter_4_" filterUnits="userSpaceOnUse" x="0" y="0" width="25.1" height="25">
								<feColorMatrix  type="matrix" values="1 0 0 0 0  0 1 0 0 0  0 0 1 0 0  0 0 0 1 0"/>
							</filter>
						</defs>
						<mask maskUnits="userSpaceOnUse" x="0" y="0" width="25.1" height="25" id="mask-10_1_">
							<g class="st23">
								<path id="path-9_1_" class="st7" d="M19.8,10.4h-1V7.3C18.8,3.9,16,1,12.5,1S6.3,3.9,6.3,7.3v3.1h-1c-1.8,0-3.1,1.4-3.1,3.1
									v7.3c0,1.8,1.4,3.1,3.1,3.1h14.6c1.8,0,3.1-1.4,3.1-3.1v-7.3C23,11.8,21.6,10.4,19.8,10.4z M8.4,7.3c0-2.3,1.9-4.2,4.2-4.2
									s4.2,1.9,4.2,4.2v3.1H8.4V7.3z M20.9,20.8c0,0.6-0.4,1-1,1H5.2c-0.6,0-1-0.4-1-1v-7.3c0-0.6,0.4-1,1-1h14.6c0.6,0,1,0.4,1,1
									V20.8z"/>
							</g>
						</mask>
						<g class="st24">
							<g>
								<rect x="0" y="0" class="st7" width="25.1" height="25"/>
							</g>
						</g>
					</g>
				</g>
				<g id="Group-34" transform="translate(73.293920, 50.790665)">
					<g>
						<path class="st25" d="M6,0h50.3c3.3,0,6,2.7,6,6v39.7c0,3.3-2.7,6-6,6H6c-3.3,0-6-2.7-6-6V6C0,2.7,2.7,0,6,0z"/>
					</g>
					<defs>
						<filter id="Adobe_OpacityMaskFilter_5_" filterUnits="userSpaceOnUse" x="19.2" y="10.9" width="16.5" height="16.3">
							<feColorMatrix  type="matrix" values="1 0 0 0 0  0 1 0 0 0  0 0 1 0 0  0 0 0 1 0"/>
						</filter>
					</defs>
					<mask maskUnits="userSpaceOnUse" x="19.2" y="10.9" width="16.5" height="16.3" id="mask-12_1_">
						<g class="st26">
							<path id="path-11_1_" class="st7" d="M6,0h50.3c3.3,0,6,2.7,6,6v39.7c0,3.3-2.7,6-6,6H6c-3.3,0-6-2.7-6-6V6C0,2.7,2.7,0,6,0z
								"/>
						</g>
					</mask>
					<ellipse class="st27" cx="27.5" cy="19" rx="8.2" ry="8.2"/>
					<defs>
						<filter id="Adobe_OpacityMaskFilter_6_" filterUnits="userSpaceOnUse" x="-21.1" y="31.7" width="59.6" height="59">
							<feColorMatrix  type="matrix" values="1 0 0 0 0  0 1 0 0 0  0 0 1 0 0  0 0 0 1 0"/>
						</filter>
					</defs>
					<mask maskUnits="userSpaceOnUse" x="-21.1" y="31.7" width="59.6" height="59" id="mask-12_2_">
						<g class="st28">
							<path id="path-11_2_" class="st7" d="M6,0h50.3c3.3,0,6,2.7,6,6v39.7c0,3.3-2.7,6-6,6H6c-3.3,0-6-2.7-6-6V6C0,2.7,2.7,0,6,0z
								"/>
						</g>
					</mask>
					<ellipse class="st29" cx="8.7" cy="61.2" rx="29.8" ry="29.5"/>
					<defs>
						<filter id="Adobe_OpacityMaskFilter_7_" filterUnits="userSpaceOnUse" x="27.5" y="20" width="70.5" height="68.9">
							<feColorMatrix  type="matrix" values="1 0 0 0 0  0 1 0 0 0  0 0 1 0 0  0 0 0 1 0"/>
						</filter>
					</defs>
					<mask maskUnits="userSpaceOnUse" x="27.5" y="20" width="70.5" height="68.9" id="mask-12_3_">
						<g class="st30">
							<path id="path-11_3_" class="st7" d="M6,0h50.3c3.3,0,6,2.7,6,6v39.7c0,3.3-2.7,6-6,6H6c-3.3,0-6-2.7-6-6V6C0,2.7,2.7,0,6,0z
								"/>
						</g>
					</mask>
					<ellipse class="st31" cx="62.8" cy="54.4" rx="35.3" ry="34.5"/>
				</g>
				<g id="Group-23" transform="translate(155.749580, 29.930213)">
					<g>
						<g class="st32">
							<path id="path-13_1_" class="st33" d="M10,0h89.4c5.5,0,10,4.5,10,10l0.5,117.9c0,5.5-4.4,10-10,10c0,0,0,0,0,0H10.5
								c-5.5,0-10-4.5-10-10L0,10C0,4.5,4.5,0,10,0C10,0,10,0,10,0z"/>
						</g>
						<g>
							<path class="st7" d="M10,0h89.4c5.5,0,10,4.5,10,10l0.5,117.9c0,5.5-4.4,10-10,10c0,0,0,0,0,0H10.5c-5.5,0-10-4.5-10-10L0,10
								C0,4.5,4.5,0,10,0C10,0,10,0,10,0z"/>
						</g>
					</g>
					<path class="st21" d="M37.5,85.3h34.9c1.5,0,2.7,1.2,2.7,2.7c0,1.5-1.2,2.7-2.7,2.7H37.5c-1.5,0-2.7-1.2-2.7-2.7
						C34.8,86.5,36,85.3,37.5,85.3z"/>
					<path class="st21" d="M28.4,99.8h53.2c1.5,0,2.7,1.2,2.7,2.7c0,1.5-1.2,2.7-2.7,2.7H28.4c-1.5,0-2.7-1.2-2.7-2.7
						C25.7,101,26.9,99.8,28.4,99.8z"/>
					<g id="Icon8" transform="translate(33.898438, 22.674404)">
						<g>
							<g class="st34">
								<ellipse id="path-15_1_" class="st33" cx="21.1" cy="21.4" rx="21.1" ry="21.4"/>
							</g>
							<g>
								<ellipse class="st7" cx="21.1" cy="21.4" rx="21.1" ry="21.4"/>
							</g>
						</g>
						<g id="Group-70" transform="translate(12.826436, 9.976738)">
							<path id="Combined-Shape" class="st35" d="M13,12.2c2.5,0,4.5,2,4.5,4.5v3.1c0,0.7-0.6,1.3-1.3,1.3H1.3
								c-0.7,0-1.3-0.6-1.3-1.3v-3.1c0-2.5,2-4.5,4.5-4.5H13z M8.7,0c3,0,5.4,2.4,5.4,5.4s-2.4,5.4-5.4,5.4S3.3,8.3,3.3,5.4
								S5.7,0,8.7,0z"/>
						</g>
					</g>
				</g>
				<g id="Wom3.5" transform="translate(210.720020, 63.488331)" class="st36">
					<g id="RArm" transform="translate(91.272131, 52.024362)" class="st37">
						
							<linearGradient id="SVGID_3_" gradientUnits="userSpaceOnUse" x1="-1083.1487" y1="561.5013" x2="-1083.1211" y2="560.3089" gradientTransform="matrix(29.9302 1.4986 2.4996 -49.9211 31036.293 29681.5156)">
							<stop  offset="0" style="stop-color:#FDC6C6"/>
							<stop  offset="1" style="stop-color:#FFCCA1"/>
						</linearGradient>
						<path class="st38" d="M13.4,69.6c0,0-10.2,10-9.6,11c0.6,1,5.8-1.3,5.8-1.3S3.2,89.9,4.5,90.7c1.3,0.8,8.1-0.8,10.2-3
							c2.1-2.2,5.3-13.1,5.3-13.1l15.6-28.9l-11.3-3.9L13.4,69.6z"/>
						<path class="st39" d="M3,16.2c4.3,6.6,18.8,25.5,18.8,25.5s-0.4,1.3-1.1,3.8l13.3,9c2.5-6.9,3.9-10.8,4.1-11.8
							c1.1-4.8-20.8-35.4-25.7-39.8C4.7-4.1-3.6,6.1,3,16.2z"/>
						<path class="st40" d="M25.2,46.7c0.2-0.3-1-2-3.4-5.1l-0.6,2.2C23.7,46.1,25,47,25.2,46.7z"/>
						<polygon id="Path-70" class="st41" points="20.6,44.2 34.8,54.9 31.6,61.8 19.2,48.2 						"/>
					</g>
					<g id="RLeg" transform="translate(67.488603, 111.114922)" class="st37">
						
							<linearGradient id="SVGID_4_" gradientUnits="userSpaceOnUse" x1="-1014.618" y1="485.6162" x2="-1014.5753" y2="484.4238" gradientTransform="matrix(10.0681 0 0 -13.5072 10254.5059 6735.1768)">
							<stop  offset="0" style="stop-color:#FDC6C6"/>
							<stop  offset="1" style="stop-color:#FAB2B2"/>
						</linearGradient>
						<polygon class="st42" points="35.5,179.7 34.7,192.9 44.8,193.2 42.9,179.7 						"/>
						<path class="st43" d="M45.2,184.9c0,0-0.3,8,1.4,10.8c1.7,2.8,2.2,4.9,2.3,6.6c0.1,1.8-0.1,3.4-0.1,3.4H32.1
							c0,0-0.4-8.4,0.7-10c1.1-1.6,1.8-1.6,1.8-3c0-1.4,0.2-7.7,0.2-7.7L45.2,184.9z"/>
						<path class="st44" d="M0,2.8L26.1,0l0.4,0.4c1.9,1.8,10,9.9,12.3,21.1c4.4,21-1.5,59.9-1.4,68.4c0.1,8.5,4.2,13.7,5.9,25.7
							c1.7,12,1.9,65.9,1.9,65.9c-4.5,2.6-8.4,2.8-13.8-0.2L0,2.8z"/>
						<path class="st45" d="M23.3,135.5L0,2.8l14.5-1.6C15.2,47.3,24.2,109.6,23.3,135.5z"/>
					</g>
					<g id="LLeg" transform="translate(45.207088, 114.765607)" class="st37">
						
							<linearGradient id="SVGID_5_" gradientUnits="userSpaceOnUse" x1="-1004.0591" y1="483.3752" x2="-1004.0045" y2="482.1829" gradientTransform="matrix(12.1628 0 0 -14.4284 12233.2656 7144.8984)">
							<stop  offset="0" style="stop-color:#FDC6C6"/>
							<stop  offset="1" style="stop-color:#FAB2B2"/>
						</linearGradient>
						<path class="st46" d="M27.6,174.6l-8.6,0.1c0.4,5.9-0.5,9.8-2.7,11.8l-0.2,0.2c-4,3.3,11.4,2.1,11.4,2.1L27.6,174.6z"/>
						<path class="st43" d="M28.1,181.5L27.8,202l-6.1,0l-0.1-5.1c0,0-1.9,4.7-4.9,5c-3,0.3-16.1,0.1-16.1,0.1s-1.1-4.7,5.5-6.9
							c5.5-1.8,11.5-13.7,11.5-13.7H28.1z"/>
						<path class="st47" d="M9.3,1l29.3-1l0.2,0.4c1.4,2.7,9.2,18.3,6.8,36.1c-3.4,25-12,54.2-12.4,58.7c-0.7,8,0.7,13.7,1.4,22
							s-2.3,60-2.3,60c-4.4,2.6-9.5,3.1-16.1,0.1c-4-46.9-6-74-6-81.5C10.2,84.7,9.3,1,9.3,1z"/>
						<path class="st45" d="M15.4,28l-0.2,1.8c-2,19.5-1.9,60.9-1.2,67.3l0.1,0.8c0.8,7.2,0.9,25.5,0.1,54.9l-1-12.7
							c-1.9-24.4-2.9-39.2-2.9-44.4l0-5.4C10,68.8,9.3,1,9.3,1l6.2-0.2C16.2,11.5,16.1,20.5,15.4,28z"/>
					</g>
					<g id="Head" transform="translate(63.095705, 3.054825)" class="st37">
						
							<linearGradient id="SVGID_6_" gradientUnits="userSpaceOnUse" x1="-1054.3727" y1="606.5738" x2="-1054.3132" y2="605.3814" gradientTransform="matrix(28.5954 0 0 -32.5131 30163.2695 19725.5938)">
							<stop  offset="0" style="stop-color:#FDC6C6"/>
							<stop  offset="1" style="stop-color:#FFCCA1"/>
						</linearGradient>
						<path class="st48" d="M2.6,20.3c-3.6,0.4-3.4,6.7,1,7c0.9,6.1,4.1,8.9,8,9.3l-0.2,9.2l17.3,0c0,0-4.9-6.5-4.6-15.3
							c0.2-8.9-0.2-17.2-0.2-17.2L1.6,13.6L2.6,20.3z"/>
						<path class="st49" d="M1.8,20.7c4.2-1.6,7.3,5.4,10.5,10.4s11.5,4.1,12.7,0c4.3-9,8.1-21.1,3-22.1C27.4-4-6.8-0.9,1.8,20.7z"
							/>
						<path class="st50" d="M25.6,4.1C27,5.3,28,6.9,28.1,9c5.1,1,1.3,13.2-3,22.1c-1.1,3.8-8.3,4.8-11.9,1
							c-3.3-9.7-1.9-20.6,4.8-28l0,0L25.6,4.1z"/>
						<ellipse class="st51" cx="20.7" cy="4.1" rx="4.1" ry="4.1"/>
					</g>
					<g id="Body" transform="translate(50.525976, 45.842858)" class="st37">
						<path class="st39" d="M10.7,4.7C6.8,10.3,0.4,29.3,0,33.6C-0.4,38.5,5,46.4,5,53.5c0.1,7.1-4,28.7-2.8,30.7
							c1.2,2,35.9,10.9,38.2,10.9c2.3,0,16.5-12.2,14.7-16.3c-1.8-4.2-10.1-14.6-9.3-20.3c0.8-5.7,5.7-26.7,8.1-33.9
							c2.4-7.2,1.6-14.7-2.9-17.8C48.9,5.2,43,0.9,32.4,0.9C21.8,0.9,11,4.2,10.7,4.7z"/>
						<path id="Path-68" class="st52" d="M22.6,0.5c-0.3,1.6,0.2,2.4,1.5,2.4c2,0,15,0.4,16.8-0.3c1.2-0.5,1.6-1.2,1.2-2.1H22.6z"/>
						<path class="st40" d="M5.1,16.8l0.1-0.1c7.1-3.5,11.4-3.7,12.9-0.5c1.9,4.2-3,14.1-14.4,30C2,41.4-0.3,36.9,0,33.6
							C0.2,31.1,2.5,23.7,5.1,16.8z"/>
					</g>
					<g id="LArm" transform="translate(0.000000, 23.915276)" class="st37">
						
							<linearGradient id="SVGID_7_" gradientUnits="userSpaceOnUse" x1="-994.4271" y1="590.0769" x2="-994.4055" y2="588.8845" gradientTransform="matrix(32.9682 0 0 -62.0645 32800.4805 36605.3242)">
							<stop  offset="0" style="stop-color:#FDC6C6"/>
							<stop  offset="1" style="stop-color:#FFCCA1"/>
						</linearGradient>
						<path class="st53" d="M8,27c0,0-1.3-2.8-3.3-3.5c-2-0.7-5.1-5.7-4.6-7.1C0.5,15,4.7,11,4.7,11S1,1.2,2.7,0.1
							c1.4-1,6.9,11.4,6.9,11.4s3.2,0.5,4,1.7c1.9,3.2,0.5,10.4,0.5,10.4L33,51l-8.7,11.1L8,27z"/>
						<path class="st39" d="M56.5,29.2c-6.4,5.6-22.1,20.6-22.1,20.6s-0.8-1.2-2.3-3.5L20.3,58.2c5.9,8.7,9.8,13,11.7,13.1
							c7.5,0.2,21-13.8,33.7-24.8C77,36.7,68.4,18.6,56.5,29.2z"/>
						<path class="st40" d="M34.4,49.8c-2.9,3.4-4.5,4.9-4.8,4.5s0.9-2.6,3.3-6.7L34.4,49.8z"/>
						<polygon id="Path-69" class="st41" points="33.4,47.1 19.8,62.1 15.6,53.5 30.8,44 						"/>
					</g>
					<path class="st54" d="M83.1,3.9c0,0,3.9-5,8.3-3.7S99.9,9.5,98,17c-1.9,7.5-0.3,11.8,2,16.9c6.2,13.6-15.3,22.3-15.3,22.3
						c1.1-6.7,0.6-12.1-1.6-16.2c-3.4-6.3-5.3-14.3-5.3-19.3C77.8,12.2,83.1,3.9,83.1,3.9z"/>
				</g>
				<g id="Group-39" transform="translate(245.534632, 6.348833)">
					<path class="st55" d="M0,6.4c15.5-8.9,31.3-8.3,47.2,0l-1,11.1c-1.4,15.1-9.7,28.7-22.6,36.7l0,0l0,0c-13.4-8-22-22.1-23-37.6
						L0,6.4L0,6.4z"/>
					<ellipse class="st56" cx="23.6" cy="24.4" rx="12.9" ry="12.7"/>
					<g id="Group-40" transform="translate(13.935007, 14.856269)">
						<path class="st7" d="M9.5,0.5c4.1,0,7.6,2.7,8.7,6.6c0.1,0.3-0.1,0.6-0.4,0.7S17.1,7.7,17,7.4C16.1,4,13,1.6,9.5,1.6
							c-4.3,0-7.8,3.5-7.8,7.7c0,2.4,0.8,4.6,2.4,6.5c0.2,0.2,0.2,0.6-0.1,0.8c-0.2,0.2-0.6,0.2-0.8-0.1C1.4,14.4,0.5,12,0.5,9.3
							C0.5,4.5,4.5,0.5,9.5,0.5z"/>
						<path class="st7" d="M7.5,3.6c3.2-1.1,6.6,0.5,7.8,3.6l0.1,0.2c0.6,1.7,1.4,2.5,2.5,2.5c0.3,0,0.6,0.2,0.6,0.6
							c0,0.3-0.2,0.6-0.6,0.6c-1.6,0-2.7-1-3.5-3l-0.1-0.2c-0.9-2.6-3.8-4-6.4-3c-2.4,0.8-3.7,3.7-3.1,6.2c0.1,0.5,0.2,0.9,0.4,1.4
							l0.2,0.4c0.5,1.2,1.2,2,4.4,5.8c0.2,0.2,0.2,0.6-0.1,0.8c-0.2,0.2-0.6,0.2-0.8-0.1l-1.7-2c-2-2.4-2.5-3.1-3-4.3l0-0.1
							c-0.2-0.5-0.4-1-0.5-1.6C2.9,8.1,4.5,4.7,7.5,3.6z"/>
						<path class="st7" d="M8.8,6.6c1.6-0.6,3.5,0.3,4,2c0.7,2.4,2.1,3.8,4.1,4.5c0.3,0.1,0.5,0.4,0.4,0.7c-0.1,0.3-0.4,0.5-0.7,0.4
							c-2.4-0.7-4-2.5-4.8-5.2c-0.3-1-1.5-1.6-2.5-1.2C8,8.1,7.5,9.2,7.8,10.6c0.2,0.7,0.8,1.8,1.8,3.1l0.2,0.2
							c0.1,0.2,0.3,0.4,0.5,0.6l1.8,2.1c0.2,0.2,0.2,0.6-0.1,0.8c-0.2,0.2-0.6,0.2-0.8-0.1l-1.4-1.7l-0.4-0.4
							C9.2,15,9,14.8,8.9,14.6l-0.4-0.5c-1-1.3-1.7-2.4-1.9-3.3C6.2,8.9,7.1,7.2,8.8,6.6z"/>
						<path class="st7" d="M9.8,9.7c0.3-0.1,0.6,0.1,0.7,0.4c0.6,2,1.8,3.4,4,5c0.2,0.2,0.3,0.5,0.1,0.8c-0.2,0.2-0.5,0.3-0.8,0.1
							c-2.4-1.8-3.7-3.3-4.4-5.6C9.3,10.1,9.5,9.8,9.8,9.7z"/>
					</g>
				</g>
			</g>
		</g>
	</g>
</g>
</svg>
